<?xml version="1.0" standalone="no"?><!DOCTYPE svg PUBLIC "-//W3C//DTD SVG 1.1//EN" "http://www.w3.org/Graphics/SVG/1.1/DTD/svg11.dtd"><svg t="1696914051652" class="icon" viewBox="0 0 1024 1024" version="1.1" xmlns="http://www.w3.org/2000/svg" p-id="4950" width="64" height="64" xmlns:xlink="http://www.w3.org/1999/xlink"><path d="M833.744865 897.995191 365.461529 897.995191l-199.940728-0.384763c-0.597611 0-1.163499 0-1.75497-0.062422-23.708981-2.360767-45.600571-13.416568-61.754482-31.160697-16.194844-17.799388-25.117051-40.8555-25.117051-64.97278L76.894298 222.681662c0-53.263088 43.342134-96.676853 96.590895-96.676853l660.260695 0c53.287647 0 96.629781 43.413765 96.629781 96.676853l0 196.234313c0 0.338714 0 0.574075-0.056282 0.865717 0 0.441045-1.90335 49.337685 14.785751 81.567737 4.533246 8.671497 1.102101 19.374256-7.593955 23.905456-8.694009 4.486174-19.435655 1.085728-23.913643-7.648191-20.333094-39.312354-18.946514-93.190449-18.71934-99.045807L894.878201 222.681662c0-33.733289-27.421536-61.156872-61.132312-61.156872L173.48417 161.52479c-33.680077 0-61.126172 27.423583-61.126172 61.156872l0 578.732867c0 31.270191 23.220864 57.221236 54.152341 60.72299l198.950168 0.39295 468.283336 0c33.710776 0 61.132312-27.414373 61.132312-61.115939l-0.39295-89.477894c-0.086981-1.636267-1.502213-18.695804-18.673292-40.555671-0.022513-0.062422-0.055259-0.125867-0.109494-0.172939l-20.73423-27.194362L743.071749 495.903393c-0.401136-0.502443-37.227879-48.486294-82.386382-43.450604-36.5658 4.075829-72.480778 43.11189-103.84409 112.743784-16.792455 37.386492-33.057907 65.217351-49.716308 85.039815-16.792455 20.010753-34.048467 32.026414-52.713572 36.598546-41.476647 10.151197-77.391624-18.176988-115.436102-48.095391l-4.815679-3.792373c-44.420699-34.954093-65.6103-26.975375-151.137209 56.876382-6.988158 6.868431-18.241456 6.742565-25.094538-0.283456-6.892991-6.963599-6.767124-18.176988 0.25992-25.038256 44.530193-43.689035 74.014714-69.450768 102.20066-80.434937 31.845289-12.480242 61.362556-6.028297 95.693456 20.938891l4.871961 3.879354c32.380478 25.488511 60.338227 47.51927 84.975347 41.461297 24.488741-6.021134 50.91153-40.23333 78.562287-101.71459 37.370119-82.993203 81.985246-127.922485 132.488477-133.479037 65.382103-7.192819 112.453165 54.845119 114.468055 57.459666l111.785969 147.927097 20.624736 27.075659c25.101701 32.121582 26.084075 58.883085 26.179242 61.818951l0 0.062422 0.338714 89.839121C930.374646 854.676593 887.032512 897.995191 833.744865 897.995191L833.744865 897.995191 833.744865 897.995191zM317.467445 415.689491c-40.430828 0-73.282027-32.853245-73.282027-73.266677 0-40.375569 32.851199-73.297376 73.282027-73.297376 40.359196 0 73.251328 32.921807 73.251328 73.297376C390.718773 382.836245 357.827665 415.689491 317.467445 415.689491L317.467445 415.689491 317.467445 415.689491zM317.467445 304.652582c-20.821211 0-37.816281 16.932648-37.816281 37.770232 0 20.852934 16.995069 37.793768 37.816281 37.793768 20.798698 0 37.795814-16.940834 37.795814-37.793768C355.26326 321.585229 338.266144 304.652582 317.467445 304.652582L317.467445 304.652582 317.467445 304.652582zM317.467445 304.652582" fill="#3E3A39" p-id="4951"></path></svg>