<?xml version="1.0" standalone="no"?><!DOCTYPE svg PUBLIC "-//W3C//DTD SVG 1.1//EN" "http://www.w3.org/Graphics/SVG/1.1/DTD/svg11.dtd"><svg t="1699184655495" class="icon" viewBox="0 0 1024 1024" version="1.1" xmlns="http://www.w3.org/2000/svg" p-id="4463" width="64" height="64" xmlns:xlink="http://www.w3.org/1999/xlink"><path d="M684.3 774.6c-57 50.9-110.1 88.9-131.2 103.4-5.8 4-13.3 4-19 0C480.2 840.8 215 649 215 481.8c0-181 171-274.2 316.5-120.4 6.6 7 17.8 7 24.4 0 145.5-153.8 316.5-60.6 316.5 120.4 0 68.4-44.4 140.9-100.6 205.3" fill="#C5E5FF" p-id="4464"></path><path d="M512 920c-6.3 0-12.7-1.9-18.2-5.7C422 864.7 64 605.7 64 378c0-123 57.7-222.3 150.5-259.3 92.9-37 198-3.4 288.3 92 4.8 5.1 13.6 5.1 18.4 0 90.3-95.5 195.4-129.1 288.3-92C902.3 155.6 960 255 960 378c0 82.1-45.9 176.3-136.5 280.1-3.5 4.1-9.7 4.5-13.7 0.9-4-3.5-4.5-9.7-0.9-13.7C896.2 545.2 940.5 455.2 940.5 378c0-114.8-53-207.3-138.2-241.2-85.1-33.9-182.4-2-266.9 87.3-6 6.4-14.6 10.1-23.4 10.1s-17.3-3.7-23.4-10.1c-84.5-89.4-181.8-121.2-266.9-87.3C136.4 170.7 83.5 263.2 83.5 378c0 218 351 471.6 421.4 520.3 4.3 3 9.9 3 14.3 0 27-18.7 98.1-69.4 174-137.1 4-3.6 10.2-3.2 13.8 0.8 3.6 4 3.2 10.2-0.8 13.8-76.7 68.4-148.5 119.7-175.8 138.6-5.7 3.7-12.1 5.6-18.4 5.6z" fill="#3B94FF" p-id="4465"></path></svg>