<?xml version="1.0" standalone="no"?><!DOCTYPE svg PUBLIC "-//W3C//DTD SVG 1.1//EN" "http://www.w3.org/Graphics/SVG/1.1/DTD/svg11.dtd"><svg t="1696841453331" class="icon" viewBox="0 0 1024 1024" version="1.1" xmlns="http://www.w3.org/2000/svg" p-id="12137" width="64" height="64" xmlns:xlink="http://www.w3.org/1999/xlink"><path d="M1011.168 487.136c0-10.368-4.512-19.648-11.552-26.208L605.6 120.64c-6.272-5.344-14.272-8.672-23.104-8.672-19.776 0-35.744 15.968-35.744 35.712v150.624c-301.184 48.64-513.248 270.048-533.92 554.24 0.992 12.064 10.848 21.632 23.136 21.632 4.736 0 9.184-1.44 12.896-3.872 0.064-0.064 0 0.192 0.064 0.192 52.032-36.928 96.992-64.48 132.096-83.008 63.968-35.2 154.464-65.28 258.368-84.544v-0.16c14.848 0 26.88-12.288 26.88-27.488 0-15.168-12.032-27.488-26.88-27.488a26.28 26.28 0 0 0-9.792 1.888c-166.4 32.608-275.936 85.664-361.92 147.2C123.168 592.8 259.488 409.312 579.84 348.96c14.144-2.304 24.992-14.912 24.992-30.144 0-0.384 0-0.8-0.032-1.184v-114.88l331.84 284.544L608.448 768.16h-2.432V629.568h-0.064c-0.928-16-13.824-28.672-29.568-28.672-16.352 0-29.632 13.664-29.632 30.528v195.68c0 19.776 15.936 35.712 35.712 35.712 8.416 0 16-3.168 22.144-8.064l394.112-340.32c0-0.032-0.128-0.064-0.064-0.096a35.715 35.715 0 0 0 12.512-27.2z" fill="#8A8A8A" p-id="12138"></path></svg>