<?xml version="1.0" standalone="no"?><!DOCTYPE svg PUBLIC "-//W3C//DTD SVG 1.1//EN" "http://www.w3.org/Graphics/SVG/1.1/DTD/svg11.dtd"><svg t="1696841370247" class="icon" viewBox="0 0 1024 1024" version="1.1" xmlns="http://www.w3.org/2000/svg" p-id="6799" width="64" height="64" xmlns:xlink="http://www.w3.org/1999/xlink"><path d="M512 837.5296a321.3312 321.3312 0 0 1-227.7888-94.208L68.5056 527.36a22.9888 22.9888 0 0 1 0-32.5632L281.856 281.6A325.888 325.888 0 0 1 742.4 281.6l213.3504 213.3504a22.9888 22.9888 0 0 1 0 32.5632l-215.7056 215.7568A321.3312 321.3312 0 0 1 512 837.5296zM117.4016 511.2832l199.68 199.68a276.48 276.48 0 0 0 390.3488 0l199.424-199.424-197.2736-197.2736a279.7056 279.7056 0 0 0-395.1616 0z" fill="#4D4D4D" p-id="6800"></path><path d="M512 655.36a143.36 143.36 0 1 1 143.36-143.36 143.36 143.36 0 0 1-143.36 143.36z m0-240.64a97.28 97.28 0 1 0 97.28 97.28 97.28 97.28 0 0 0-97.28-97.28z" fill="#4D4D4D" p-id="6801"></path></svg>