<svg xmlns="http://www.w3.org/2000/svg" version="1.1" xlink="http://www.w3.org/1999/xlink" xmlns:svgjs="http://svgjs.com/svgjs" width="100%" height="100%" preserveAspectRatio="xMidYMid meet" viewBox="-0.00000198215025193349 0.0000380681267415639 145.13983154296875 146.9999542236328" overflow="visible"><defs id="SvgjsDefs261314"/><g id="SvgjsG261315" transform="scale(0.5159705159705158)" opacity="1"><g id="SvgjsG261316" class="QwZpes_rv9" transform="translate(-7.413928698595996, -5.619361206516897) scale(2.9612802601932295)" light-content="false" non-strokable="false" fill="#ffd700"><path d="M96.805 35.816l-8.227-11.258 4.606-13.168a3.608 3.608 0 0 0-.832-3.727 3.568 3.568 0 0 0-3.711-.91l-13.258 4.348-11.09-8.453a3.618 3.618 0 0 0-5.824 2.883l.031 13.953-11.469 7.937a3.597 3.597 0 0 0-1.516 3.516c.196 1.379 1.153 2.484 2.47 2.926l13.272 4.273 4 13.363a3.588 3.588 0 0 0 3.469 2.578 3.614 3.614 0 0 0 2.926-1.5l8.168-11.305 13.938.316c1.437-.015 2.652-.71 3.289-1.937.68-1.258.574-2.715-.242-3.836zm-1.73 2.758c-.243.469-.711.773-1.227.726L79.3 38.968a1.157 1.157 0 0 0-.953.47l-8.516 11.788a1.31 1.31 0 0 1-1.316.547 1.334 1.334 0 0 1-1.074-.938L63.258 36.91a1.127 1.127 0 0 0-.742-.757L48.668 31.7a1.334 1.334 0 0 1-.926-1.09c-.074-.531.137-1.016.563-1.305l11.953-8.273a1.14 1.14 0 0 0 .484-.938l-.047-14.547c0-.531.273-.984.742-1.21.196-.09.41-.153.606-.153.289 0 .574.09.816.289l11.574 8.816c.305.227.684.29 1.047.184l13.816-4.531a1.325 1.325 0 0 1 1.379.332c.363.379.484.894.305 1.394l-4.805 13.727c-.121.348-.063.742.152 1.047l8.574 11.742c.372.39.414.922.172 1.39zM27.438 27.848a2.22 2.22 0 0 0 1.79 1.574 2.273 2.273 0 0 0 2.21-.906l3.29-4.547 5.605.121h.062c.848 0 1.606-.469 2-1.21a2.217 2.217 0 0 0-.183-2.38l-3.305-4.53 1.848-5.29c.289-.816.09-1.71-.516-2.332s-1.5-.832-2.316-.562L32.59 9.528l-4.454-3.395a2.255 2.255 0 0 0-2.378-.226 2.256 2.256 0 0 0-1.258 2.03l.015 5.606-4.605 3.196a2.273 2.273 0 0 0-.953 2.195 2.22 2.22 0 0 0 1.547 1.816l5.332 1.711zM26.29 15.075c.304-.21.484-.563.484-.938l-.031-6.195L31.68 11.7c.305.227.684.29 1.047.184l5.895-1.938-2.047 5.863c-.121.348-.063.743.152 1.047l3.668 5-6.21-.136c-.306-.016-.727.168-.954.468L29.61 27.22l-1.79-5.938a1.127 1.127 0 0 0-.741-.758l-5.91-1.894zm64.757 53.03l1.848-5.29c.289-.816.09-1.71-.516-2.331a2.241 2.241 0 0 0-2.316-.563l-5.332 1.743-4.453-3.395a2.223 2.223 0 0 0-2.38-.226 2.273 2.273 0 0 0-1.257 2.03l.016 5.606-4.606 3.196a2.273 2.273 0 0 0-.953 2.195c.121.863.71 1.562 1.547 1.816l5.332 1.711 1.605 5.379a2.22 2.22 0 0 0 1.79 1.574c.12.016.257.031.378.031.711 0 1.395-.347 1.832-.937l3.29-4.547 5.605.121c.937 0 1.652-.437 2.062-1.21a2.217 2.217 0 0 0-.183-2.38zm-4.73 5.71a1.2 1.2 0 0 0-.954.47l-3.62 5.03-1.79-5.937a1.127 1.127 0 0 0-.742-.757l-5.91-1.895 5.105-3.531c.305-.211.485-.563.485-.938l-.032-6.195 4.938 3.758c.305.226.695.289 1.047.183l5.894-1.937-2.047 5.863c-.12.348-.062.742.153 1.047l3.652 5zM4.438 42.41l12.91-12.91c.437-.438.437-1.168 0-1.606s-1.168-.437-1.606 0l-12.91 12.91a1.146 1.146 0 0 0 0 1.606c.227.227.516.332.805.332.289 0 .574-.105.8-.332zm1.441 4.028l-2.395 2.394a1.118 1.118 0 0 0 0 1.606c.227.227.516.332.805.332.29 0 .574-.105.805-.332l2.394-2.394a1.146 1.146 0 0 0 0-1.606 1.123 1.123 0 0 0-1.61 0zM17.5 34.816l-6.273 6.273a1.146 1.146 0 0 0 0 1.606c.226.226.515.332.804.332s.575-.106.805-.332l6.273-6.273a1.146 1.146 0 0 0 0-1.606c-.441-.438-1.172-.453-1.609 0zm53.605 48.442l-12.91 12.91a1.146 1.146 0 0 0 0 1.605c.227.227.516.333.805.333s.574-.106.804-.332l12.91-12.91a1.146 1.146 0 0 0 0-1.606 1.133 1.133 0 0 0-1.609 0zm-18.543 9.863l-2.394 2.394a1.146 1.146 0 0 0 0 1.606c.226.227.515.332.804.332.29 0 .574-.105.805-.332l2.394-2.394a1.146 1.146 0 0 0 0-1.606 1.15 1.15 0 0 0-1.609 0zm6.149-3.41c.29 0 .574-.105.805-.332l6.273-6.273c.438-.438.438-1.168 0-1.606s-1.168-.437-1.605 0l-6.274 6.273a1.146 1.146 0 0 0 0 1.606 1.2 1.2 0 0 0 .801.332z"/><path d="M24.652 74.895c.227.227.516.332.805.332.289 0 .574-.105.804-.332l31.727-31.727c.438-.438.438-1.168 0-1.606s-1.168-.437-1.605 0L24.653 73.29a1.139 1.139 0 0 0 0 1.606zm-8.168-4.211l-5.168 5.168a1.146 1.146 0 0 0 0 1.605c.227.227.516.333.805.333.289 0 .574-.106.804-.332l5.168-5.168a1.146 1.146 0 0 0 0-1.606 1.143 1.143 0 0 0-1.609 0zm30.243-30.231L22.938 64.226a1.146 1.146 0 0 0 0 1.605c.227.227.516.333.805.333.289 0 .574-.106.804-.332l23.785-23.77a1.146 1.146 0 0 0 0-1.606 1.142 1.142 0 0 0-1.605-.004zM31.348 77.758l-9.063 9.063a1.146 1.146 0 0 0 0 1.605c.227.227.516.332.805.332.29 0 .574-.105.805-.332l9.062-9.063a1.146 1.146 0 0 0 0-1.605 1.144 1.144 0 0 0-1.609 0zM59.305 51.41a1.146 1.146 0 0 0-1.605 0L37.803 71.305a1.146 1.146 0 0 0 0 1.605 1.136 1.136 0 0 0 1.61.001l19.895-19.896a1.15 1.15 0 0 0-.004-1.605z"/></g></g></svg>