<?xml version="1.0" standalone="no"?><!DOCTYPE svg PUBLIC "-//W3C//DTD SVG 1.1//EN" "http://www.w3.org/Graphics/SVG/1.1/DTD/svg11.dtd"><svg t="1696871554242" class="icon" viewBox="0 0 1024 1024" version="1.1" xmlns="http://www.w3.org/2000/svg" p-id="4099" width="64" height="64" xmlns:xlink="http://www.w3.org/1999/xlink"><path d="M509.633593 1019.222395c-281.878694 0-509.611198-227.732504-509.611198-509.611197s227.732504-509.611198 509.611198-509.611198 509.611198 227.732504 509.611197 509.611198-227.732504 509.611198-509.611197 509.611197z m1.592535-38.22084c261.175739 0 471.390358-211.807154 471.390357-471.390357S772.401866 38.22084 511.226128 38.22084 39.83577 248.435459 39.83577 509.611198s210.214619 471.390358 471.390358 471.390357z" fill="#FFFFFF" p-id="4100"></path><path d="M511.226128 509.611198m-471.390358 0a471.390358 471.390358 0 1 0 942.780715 0 471.390358 471.390358 0 1 0-942.780715 0Z" fill="#C2C5CD" p-id="4101"></path><path d="M732.588491 350.357698h-81.219284L609.963297 283.471229H396.563608L355.157698 350.357698h-81.219284c-17.517885 0-52.553655 17.517885-52.553655 49.368585v269.138414c0 28.66563 27.073095 50.96112 49.368585 50.961119h465.020217c23.888025 0 52.553655-23.888025 52.553655-49.368584V401.318818c-1.592535-17.517885-19.11042-50.96112-55.738725-50.96112z m19.11042 320.099534c0 6.37014-11.147745 15.92535-15.92535 15.92535H269.160809c-4.777605 0-14.332815-7.962675-14.332815-17.517885V401.318818c0-11.147745 14.332815-15.92535 17.517885-15.92535h101.922239l9.55521-15.92535 31.8507-50.96112h173.586314l31.8507 50.96112 9.55521 15.92535h101.922239c12.74028 0 17.517885 15.92535 17.517885 17.517885v267.545879zM503.263453 401.318818c-68.479005 0-124.217729 52.553655-124.21773 117.847589s55.738725 117.847589 124.21773 117.84759 124.217729-52.553655 124.217729-117.84759-55.738725-117.847589-124.217729-117.847589z m0 202.251944c-49.368585 0-89.18196-38.22084-89.18196-84.404355s39.813375-84.404355 89.18196-84.404354c49.368585 0 89.18196 38.22084 89.181959 84.404354s-39.813375 84.404355-89.181959 84.404355z" fill="#FFFFFF" p-id="4102"></path></svg>